<svg width="24" height="24" viewBox="0 0 24 24" fill="rgba(2, 160, 164, 1)" xmlns="http://www.w3.org/2000/svg" class="ml-2"><g fill-rule="evenodd" clip-rule="evenodd" fill="current"><path d="M7.665 3.5C5.135 3.5 3.5 5.233 3.5 7.916v8.168c0 2.683 1.635 4.416 4.165 4.416h8.668c2.531 0 4.167-1.733 4.167-4.416V7.916c0-2.683-1.636-4.416-4.166-4.416H7.665zM16.333 22H7.665C4.276 22 2 19.622 2 16.084V7.916C2 4.378 4.276 2 7.665 2h8.669C19.723 2 22 4.378 22 7.916v8.168C22 19.622 19.723 22 16.333 22z"></path><path d="M10.813 15.123a.746.746 0 01-.53-.22L7.91 12.53a.749.749 0 111.06-1.06l1.844 1.842 4.216-4.215a.749.749 0 111.06 1.06l-4.746 4.746a.744.744 0 01-.53.22z"></path></g></svg>