<svg width="24" height="24" viewBox="0 0 24 24" fill="rgba(22, 22, 22, 1)" xmlns="http://www.w3.org/2000/svg"><path fill-rule="evenodd" clip-rule="evenodd" d="M20.75 21.94h-7.252a.75.75 0 010-1.5h7.253a.75.75 0 010 1.5z" fill="current"></path><mask id="Edit_svg__a" maskUnits="userSpaceOnUse" x="2" y="3" width="18" height="19"><path fill-rule="evenodd" clip-rule="evenodd" d="M2 3h17.18v18.94H2V3z" fill="#fff"></path></mask><g mask="url(#Edit_svg__a)"><path fill-rule="evenodd" clip-rule="evenodd" d="M13.11 5.017L3.697 16.792c-.171.214-.234.49-.171.755l.68 2.885 3.04-.038a.949.949 0 00.733-.352c3.216-4.025 9.35-11.7 9.524-11.924a1.36 1.36 0 00.142-1.004 1.411 1.411 0 00-.652-.887 328.898 328.898 0 01-1.809-1.398 1.497 1.497 0 00-2.072.188zM3.614 21.94a.75.75 0 01-.73-.577l-.82-3.471a2.371 2.371 0 01.46-2.037l9.42-11.782c.004-.004.007-.01.011-.013 1.034-1.235 2.902-1.417 4.161-.406l1.724 1.339c.608.362 1.082 1.009 1.262 1.775.18.758.05 1.54-.367 2.2-.032.05-.058.092-9.586 12.012a2.447 2.447 0 01-1.886.914l-3.64.046h-.01z" fill="current"></path></g><path fill-rule="evenodd" clip-rule="evenodd" d="M16.223 11.685a.753.753 0 01-.457-.155l-5.452-4.188a.751.751 0 01.914-1.19l5.453 4.188a.75.75 0 01-.458 1.345z" fill="current"></path></svg>